<mxfile host="app.diagrams.net" agent="Mozilla/5.0 (X11; Linux x86_64) AppleWebKit/537.36 (KHTML, like Gecko) Chrome/134.0.0.0 Safari/537.36" version="26.1.1">
  <diagram name="Page-1" id="BeTOv0LpF-9Sh6fO2DPC">
    <mxGraphModel dx="1137" dy="633" grid="1" gridSize="10" guides="1" tooltips="1" connect="1" arrows="1" fold="1" page="1" pageScale="1" pageWidth="850" pageHeight="1100" math="1" shadow="0">
      <root>
        <mxCell id="0" />
        <mxCell id="1" parent="0" />
        <mxCell id="tTBhliybLuTIgKMnyGti-1" value="" style="ellipse;whiteSpace=wrap;html=1;aspect=fixed;" vertex="1" parent="1">
          <mxGeometry x="240" y="370" width="40" height="40" as="geometry" />
        </mxCell>
        <mxCell id="tTBhliybLuTIgKMnyGti-3" value="$$\tilde{x}_i$$" style="text;whiteSpace=wrap;fontSize=14;fontStyle=1" vertex="1" parent="1">
          <mxGeometry x="252" y="361" width="20" height="40" as="geometry" />
        </mxCell>
        <mxCell id="tTBhliybLuTIgKMnyGti-4" value="" style="ellipse;whiteSpace=wrap;html=1;aspect=fixed;" vertex="1" parent="1">
          <mxGeometry x="400" y="370" width="40" height="40" as="geometry" />
        </mxCell>
        <mxCell id="tTBhliybLuTIgKMnyGti-5" value="$$\tilde{x}_j$$" style="text;whiteSpace=wrap;fontSize=14;fontStyle=1" vertex="1" parent="1">
          <mxGeometry x="412" y="361" width="20" height="40" as="geometry" />
        </mxCell>
        <mxCell id="tTBhliybLuTIgKMnyGti-9" style="rounded=0;orthogonalLoop=1;jettySize=auto;html=1;exitX=0;exitY=0;exitDx=0;exitDy=0;entryX=1;entryY=1;entryDx=0;entryDy=0;" edge="1" parent="1" source="tTBhliybLuTIgKMnyGti-6" target="tTBhliybLuTIgKMnyGti-1">
          <mxGeometry relative="1" as="geometry" />
        </mxCell>
        <mxCell id="tTBhliybLuTIgKMnyGti-12" style="rounded=0;orthogonalLoop=1;jettySize=auto;html=1;exitX=1;exitY=0;exitDx=0;exitDy=0;entryX=0;entryY=1;entryDx=0;entryDy=0;" edge="1" parent="1" source="tTBhliybLuTIgKMnyGti-6" target="tTBhliybLuTIgKMnyGti-4">
          <mxGeometry relative="1" as="geometry" />
        </mxCell>
        <mxCell id="tTBhliybLuTIgKMnyGti-6" value="" style="ellipse;whiteSpace=wrap;html=1;aspect=fixed;" vertex="1" parent="1">
          <mxGeometry x="320" y="459" width="40" height="40" as="geometry" />
        </mxCell>
        <mxCell id="tTBhliybLuTIgKMnyGti-7" value="$$x$$" style="text;whiteSpace=wrap;fontSize=14;fontStyle=1" vertex="1" parent="1">
          <mxGeometry x="334" y="449" width="20" height="40" as="geometry" />
        </mxCell>
        <mxCell id="tTBhliybLuTIgKMnyGti-13" value="随机增强" style="text;html=1;align=center;verticalAlign=middle;resizable=0;points=[];autosize=1;strokeColor=none;fillColor=none;" vertex="1" parent="1">
          <mxGeometry x="370" y="429" width="70" height="30" as="geometry" />
        </mxCell>
      </root>
    </mxGraphModel>
  </diagram>
</mxfile>
